<mxfile host="app.diagrams.net" modified="2024-05-06T16:49:56.028Z" agent="Mozilla/5.0 (Windows NT 10.0; Win64; x64) AppleWebKit/537.36 (KHTML, like Gecko) Chrome/114.0.0.0 Safari/537.36" etag="NE77_4SjvvZmOEY3dYDY" version="24.3.1" type="device">
  <diagram name="Page-1" id="hHw1wzZmSoQQ5b5QwbxU">
    <mxGraphModel dx="1687" dy="936" grid="1" gridSize="10" guides="1" tooltips="1" connect="1" arrows="1" fold="1" page="1" pageScale="1" pageWidth="850" pageHeight="1100" math="0" shadow="0">
      <root>
        <mxCell id="0" />
        <mxCell id="1" parent="0" />
        <mxCell id="6y43UWj3toeOaIN4cg_Z-1" value="Cliente" style="swimlane;whiteSpace=wrap;html=1;movable=1;resizable=1;rotatable=1;deletable=1;editable=1;locked=0;connectable=1;" parent="1" vertex="1">
          <mxGeometry x="190" y="465" width="180" height="200" as="geometry" />
        </mxCell>
        <mxCell id="6y43UWj3toeOaIN4cg_Z-2" value="ID_Cliente (PK)" style="text;html=1;align=center;verticalAlign=middle;resizable=0;points=[];autosize=1;strokeColor=none;fillColor=none;" parent="6y43UWj3toeOaIN4cg_Z-1" vertex="1">
          <mxGeometry x="35" y="30" width="110" height="30" as="geometry" />
        </mxCell>
        <mxCell id="6y43UWj3toeOaIN4cg_Z-3" value="Nombre" style="text;html=1;align=center;verticalAlign=middle;resizable=0;points=[];autosize=1;strokeColor=none;fillColor=none;" parent="6y43UWj3toeOaIN4cg_Z-1" vertex="1">
          <mxGeometry x="55" y="60" width="70" height="30" as="geometry" />
        </mxCell>
        <mxCell id="6y43UWj3toeOaIN4cg_Z-5" value="Telefono" style="text;html=1;align=center;verticalAlign=middle;resizable=0;points=[];autosize=1;strokeColor=none;fillColor=none;" parent="6y43UWj3toeOaIN4cg_Z-1" vertex="1">
          <mxGeometry x="55" y="90" width="70" height="30" as="geometry" />
        </mxCell>
        <mxCell id="6y43UWj3toeOaIN4cg_Z-6" value="Email" style="text;html=1;align=center;verticalAlign=middle;resizable=0;points=[];autosize=1;strokeColor=none;fillColor=none;" parent="6y43UWj3toeOaIN4cg_Z-1" vertex="1">
          <mxGeometry x="65" y="127" width="50" height="30" as="geometry" />
        </mxCell>
        <mxCell id="6y43UWj3toeOaIN4cg_Z-7" value="Contrasena" style="text;html=1;align=center;verticalAlign=middle;resizable=0;points=[];autosize=1;strokeColor=none;fillColor=none;" parent="6y43UWj3toeOaIN4cg_Z-1" vertex="1">
          <mxGeometry x="45" y="160" width="90" height="30" as="geometry" />
        </mxCell>
        <mxCell id="6y43UWj3toeOaIN4cg_Z-8" value="Pedidos" style="swimlane;whiteSpace=wrap;html=1;" parent="1" vertex="1">
          <mxGeometry x="510" y="450" width="180" height="290" as="geometry" />
        </mxCell>
        <mxCell id="6y43UWj3toeOaIN4cg_Z-9" value="ID_Pedido (PK)" style="text;html=1;align=center;verticalAlign=middle;resizable=0;points=[];autosize=1;strokeColor=none;fillColor=none;" parent="6y43UWj3toeOaIN4cg_Z-8" vertex="1">
          <mxGeometry x="35" y="30" width="110" height="30" as="geometry" />
        </mxCell>
        <mxCell id="6y43UWj3toeOaIN4cg_Z-10" value="Fecha" style="text;html=1;align=center;verticalAlign=middle;resizable=0;points=[];autosize=1;strokeColor=none;fillColor=none;" parent="6y43UWj3toeOaIN4cg_Z-8" vertex="1">
          <mxGeometry x="60" y="60" width="60" height="30" as="geometry" />
        </mxCell>
        <mxCell id="6y43UWj3toeOaIN4cg_Z-11" value="Estado" style="text;html=1;align=center;verticalAlign=middle;resizable=0;points=[];autosize=1;strokeColor=none;fillColor=none;" parent="6y43UWj3toeOaIN4cg_Z-8" vertex="1">
          <mxGeometry x="60" y="90" width="60" height="30" as="geometry" />
        </mxCell>
        <mxCell id="6y43UWj3toeOaIN4cg_Z-15" value="ID_Cliente (FK)" style="text;html=1;align=center;verticalAlign=middle;resizable=0;points=[];autosize=1;strokeColor=none;fillColor=none;" parent="6y43UWj3toeOaIN4cg_Z-8" vertex="1">
          <mxGeometry x="35" y="170" width="110" height="30" as="geometry" />
        </mxCell>
        <mxCell id="m9QhJa3I75lc1ZdL8t6L-31" value="Direccion" style="text;html=1;align=center;verticalAlign=middle;resizable=0;points=[];autosize=1;strokeColor=none;fillColor=none;" vertex="1" parent="6y43UWj3toeOaIN4cg_Z-8">
          <mxGeometry x="55" y="127" width="70" height="30" as="geometry" />
        </mxCell>
        <mxCell id="6y43UWj3toeOaIN4cg_Z-32" value="ID_Trabajador (FK)" style="text;html=1;align=center;verticalAlign=middle;resizable=0;points=[];autosize=1;strokeColor=none;fillColor=none;" parent="6y43UWj3toeOaIN4cg_Z-8" vertex="1">
          <mxGeometry x="25" y="210" width="130" height="30" as="geometry" />
        </mxCell>
        <mxCell id="m9QhJa3I75lc1ZdL8t6L-11" value="ID_Metodo_Pago (FK)" style="text;html=1;align=center;verticalAlign=middle;resizable=0;points=[];autosize=1;strokeColor=none;fillColor=none;" vertex="1" parent="6y43UWj3toeOaIN4cg_Z-8">
          <mxGeometry x="20" y="250" width="140" height="30" as="geometry" />
        </mxCell>
        <mxCell id="6y43UWj3toeOaIN4cg_Z-16" value="Productos" style="swimlane;whiteSpace=wrap;html=1;movable=1;resizable=1;rotatable=1;deletable=1;editable=1;locked=0;connectable=1;" parent="1" vertex="1">
          <mxGeometry x="790" y="775" width="180" height="210" as="geometry" />
        </mxCell>
        <mxCell id="6y43UWj3toeOaIN4cg_Z-17" value="ID_Producto (PK)" style="text;html=1;align=center;verticalAlign=middle;resizable=0;points=[];autosize=1;strokeColor=none;fillColor=none;" parent="6y43UWj3toeOaIN4cg_Z-16" vertex="1">
          <mxGeometry x="30" y="30" width="120" height="30" as="geometry" />
        </mxCell>
        <mxCell id="6y43UWj3toeOaIN4cg_Z-18" value="Nombre" style="text;html=1;align=center;verticalAlign=middle;resizable=0;points=[];autosize=1;strokeColor=none;fillColor=none;" parent="6y43UWj3toeOaIN4cg_Z-16" vertex="1">
          <mxGeometry x="55" y="60" width="70" height="30" as="geometry" />
        </mxCell>
        <mxCell id="6y43UWj3toeOaIN4cg_Z-19" value="Descripcion" style="text;html=1;align=center;verticalAlign=middle;resizable=0;points=[];autosize=1;strokeColor=none;fillColor=none;" parent="6y43UWj3toeOaIN4cg_Z-16" vertex="1">
          <mxGeometry x="45" y="90" width="90" height="30" as="geometry" />
        </mxCell>
        <mxCell id="6y43UWj3toeOaIN4cg_Z-20" value="Precio" style="text;html=1;align=center;verticalAlign=middle;resizable=0;points=[];autosize=1;strokeColor=none;fillColor=none;" parent="6y43UWj3toeOaIN4cg_Z-16" vertex="1">
          <mxGeometry x="60" y="120" width="60" height="30" as="geometry" />
        </mxCell>
        <mxCell id="m9QhJa3I75lc1ZdL8t6L-24" value="ID_Detalle (FK)" style="text;html=1;align=center;verticalAlign=middle;resizable=0;points=[];autosize=1;strokeColor=none;fillColor=none;" vertex="1" parent="6y43UWj3toeOaIN4cg_Z-16">
          <mxGeometry x="35" y="150" width="110" height="30" as="geometry" />
        </mxCell>
        <mxCell id="m9QhJa3I75lc1ZdL8t6L-27" value="ID_Categoria (FK)" style="text;html=1;align=center;verticalAlign=middle;resizable=0;points=[];autosize=1;strokeColor=none;fillColor=none;" vertex="1" parent="6y43UWj3toeOaIN4cg_Z-16">
          <mxGeometry x="30" y="180" width="120" height="30" as="geometry" />
        </mxCell>
        <mxCell id="6y43UWj3toeOaIN4cg_Z-23" value="Detalle_Pedido" style="swimlane;whiteSpace=wrap;html=1;movable=1;resizable=1;rotatable=1;deletable=1;editable=1;locked=0;connectable=1;" parent="1" vertex="1">
          <mxGeometry x="488" y="818.75" width="180" height="122.5" as="geometry" />
        </mxCell>
        <mxCell id="6y43UWj3toeOaIN4cg_Z-24" value="ID_Detalle (PK)" style="text;html=1;align=center;verticalAlign=middle;resizable=0;points=[];autosize=1;strokeColor=none;fillColor=none;" parent="6y43UWj3toeOaIN4cg_Z-23" vertex="1">
          <mxGeometry x="35" y="30" width="110" height="30" as="geometry" />
        </mxCell>
        <mxCell id="6y43UWj3toeOaIN4cg_Z-25" value="Cantidad" style="text;html=1;align=center;verticalAlign=middle;resizable=0;points=[];autosize=1;strokeColor=none;fillColor=none;" parent="6y43UWj3toeOaIN4cg_Z-23" vertex="1">
          <mxGeometry x="55" y="60" width="70" height="30" as="geometry" />
        </mxCell>
        <mxCell id="6y43UWj3toeOaIN4cg_Z-26" value="ID_Pedido (FK)" style="text;html=1;align=center;verticalAlign=middle;resizable=0;points=[];autosize=1;strokeColor=none;fillColor=none;" parent="6y43UWj3toeOaIN4cg_Z-23" vertex="1">
          <mxGeometry x="35" y="90" width="110" height="30" as="geometry" />
        </mxCell>
        <mxCell id="6y43UWj3toeOaIN4cg_Z-28" value="Trabajador" style="swimlane;whiteSpace=wrap;html=1;movable=1;resizable=1;rotatable=1;deletable=1;editable=1;locked=0;connectable=1;" parent="1" vertex="1">
          <mxGeometry x="820" y="430" width="180" height="270" as="geometry" />
        </mxCell>
        <mxCell id="6y43UWj3toeOaIN4cg_Z-29" value="ID_Trabajador (PK)" style="text;html=1;align=center;verticalAlign=middle;resizable=0;points=[];autosize=1;strokeColor=none;fillColor=none;" parent="6y43UWj3toeOaIN4cg_Z-28" vertex="1">
          <mxGeometry x="25" y="30" width="130" height="30" as="geometry" />
        </mxCell>
        <mxCell id="6y43UWj3toeOaIN4cg_Z-30" value="Nombre" style="text;html=1;align=center;verticalAlign=middle;resizable=0;points=[];autosize=1;strokeColor=none;fillColor=none;" parent="6y43UWj3toeOaIN4cg_Z-28" vertex="1">
          <mxGeometry x="55" y="60" width="70" height="30" as="geometry" />
        </mxCell>
        <mxCell id="m9QhJa3I75lc1ZdL8t6L-12" value="Numero_SS" style="text;html=1;align=center;verticalAlign=middle;resizable=0;points=[];autosize=1;strokeColor=none;fillColor=none;" vertex="1" parent="6y43UWj3toeOaIN4cg_Z-28">
          <mxGeometry x="45" y="90" width="90" height="30" as="geometry" />
        </mxCell>
        <mxCell id="m9QhJa3I75lc1ZdL8t6L-15" value="Telefono" style="text;html=1;align=center;verticalAlign=middle;resizable=0;points=[];autosize=1;strokeColor=none;fillColor=none;" vertex="1" parent="6y43UWj3toeOaIN4cg_Z-28">
          <mxGeometry x="55" y="130" width="70" height="30" as="geometry" />
        </mxCell>
        <mxCell id="m9QhJa3I75lc1ZdL8t6L-14" value="Email" style="text;html=1;align=center;verticalAlign=middle;resizable=0;points=[];autosize=1;strokeColor=none;fillColor=none;" vertex="1" parent="6y43UWj3toeOaIN4cg_Z-28">
          <mxGeometry x="65" y="160" width="50" height="30" as="geometry" />
        </mxCell>
        <mxCell id="m9QhJa3I75lc1ZdL8t6L-16" value="Contrasena" style="text;html=1;align=center;verticalAlign=middle;resizable=0;points=[];autosize=1;strokeColor=none;fillColor=none;" vertex="1" parent="6y43UWj3toeOaIN4cg_Z-28">
          <mxGeometry x="45" y="190" width="90" height="30" as="geometry" />
        </mxCell>
        <mxCell id="m9QhJa3I75lc1ZdL8t6L-26" value="Fecha_Contratacion" style="text;html=1;align=center;verticalAlign=middle;resizable=0;points=[];autosize=1;strokeColor=none;fillColor=none;" vertex="1" parent="6y43UWj3toeOaIN4cg_Z-28">
          <mxGeometry x="25" y="230" width="130" height="30" as="geometry" />
        </mxCell>
        <mxCell id="6y43UWj3toeOaIN4cg_Z-36" value="" style="endArrow=none;html=1;rounded=0;exitX=1;exitY=0.5;exitDx=0;exitDy=0;" parent="1" source="6y43UWj3toeOaIN4cg_Z-1" edge="1">
          <mxGeometry width="50" height="50" relative="1" as="geometry">
            <mxPoint x="470" y="630" as="sourcePoint" />
            <mxPoint x="510" y="565" as="targetPoint" />
          </mxGeometry>
        </mxCell>
        <mxCell id="6y43UWj3toeOaIN4cg_Z-37" value="" style="endArrow=none;html=1;rounded=0;entryX=0;entryY=0.5;entryDx=0;entryDy=0;" parent="1" target="6y43UWj3toeOaIN4cg_Z-28" edge="1">
          <mxGeometry width="50" height="50" relative="1" as="geometry">
            <mxPoint x="690" y="565" as="sourcePoint" />
            <mxPoint x="490" y="660" as="targetPoint" />
          </mxGeometry>
        </mxCell>
        <mxCell id="6y43UWj3toeOaIN4cg_Z-39" value="" style="endArrow=none;html=1;rounded=0;entryX=0;entryY=0.5;entryDx=0;entryDy=0;exitX=1;exitY=0.5;exitDx=0;exitDy=0;" parent="1" source="6y43UWj3toeOaIN4cg_Z-23" target="6y43UWj3toeOaIN4cg_Z-16" edge="1">
          <mxGeometry width="50" height="50" relative="1" as="geometry">
            <mxPoint x="440" y="770" as="sourcePoint" />
            <mxPoint x="490" y="720" as="targetPoint" />
          </mxGeometry>
        </mxCell>
        <mxCell id="m9QhJa3I75lc1ZdL8t6L-3" value="Metodo_Pago" style="swimlane;whiteSpace=wrap;html=1;movable=1;resizable=1;rotatable=1;deletable=1;editable=1;locked=0;connectable=1;" vertex="1" parent="1">
          <mxGeometry x="518" y="190" width="180" height="190" as="geometry" />
        </mxCell>
        <mxCell id="m9QhJa3I75lc1ZdL8t6L-4" value="ID_Metodo_Pago (PK)" style="text;html=1;align=center;verticalAlign=middle;resizable=0;points=[];autosize=1;strokeColor=none;fillColor=none;" vertex="1" parent="m9QhJa3I75lc1ZdL8t6L-3">
          <mxGeometry x="20" y="30" width="140" height="30" as="geometry" />
        </mxCell>
        <mxCell id="m9QhJa3I75lc1ZdL8t6L-5" value="Numero" style="text;html=1;align=center;verticalAlign=middle;resizable=0;points=[];autosize=1;strokeColor=none;fillColor=none;" vertex="1" parent="m9QhJa3I75lc1ZdL8t6L-3">
          <mxGeometry x="55" y="60" width="70" height="30" as="geometry" />
        </mxCell>
        <mxCell id="m9QhJa3I75lc1ZdL8t6L-6" value="CVV" style="text;html=1;align=center;verticalAlign=middle;resizable=0;points=[];autosize=1;strokeColor=none;fillColor=none;" vertex="1" parent="m9QhJa3I75lc1ZdL8t6L-3">
          <mxGeometry x="65" y="90" width="50" height="30" as="geometry" />
        </mxCell>
        <mxCell id="m9QhJa3I75lc1ZdL8t6L-7" value="Fecha_Caducidad" style="text;html=1;align=center;verticalAlign=middle;resizable=0;points=[];autosize=1;strokeColor=none;fillColor=none;" vertex="1" parent="m9QhJa3I75lc1ZdL8t6L-3">
          <mxGeometry x="30" y="120" width="120" height="30" as="geometry" />
        </mxCell>
        <mxCell id="m9QhJa3I75lc1ZdL8t6L-8" value="Contrarembolso&amp;nbsp;" style="text;html=1;align=center;verticalAlign=middle;resizable=0;points=[];autosize=1;strokeColor=none;fillColor=none;" vertex="1" parent="m9QhJa3I75lc1ZdL8t6L-3">
          <mxGeometry x="35" y="150" width="110" height="30" as="geometry" />
        </mxCell>
        <mxCell id="m9QhJa3I75lc1ZdL8t6L-10" value="" style="endArrow=none;html=1;rounded=0;entryX=0.5;entryY=1;entryDx=0;entryDy=0;" edge="1" parent="1" target="m9QhJa3I75lc1ZdL8t6L-3">
          <mxGeometry width="50" height="50" relative="1" as="geometry">
            <mxPoint x="608" y="450" as="sourcePoint" />
            <mxPoint x="790" y="490" as="targetPoint" />
          </mxGeometry>
        </mxCell>
        <mxCell id="m9QhJa3I75lc1ZdL8t6L-17" value="Categoria" style="swimlane;whiteSpace=wrap;html=1;movable=1;resizable=1;rotatable=1;deletable=1;editable=1;locked=0;connectable=1;" vertex="1" parent="1">
          <mxGeometry x="1110" y="825.78" width="180" height="108.44" as="geometry" />
        </mxCell>
        <mxCell id="m9QhJa3I75lc1ZdL8t6L-18" value="ID_Categoria (PK)" style="text;html=1;align=center;verticalAlign=middle;resizable=0;points=[];autosize=1;strokeColor=none;fillColor=none;" vertex="1" parent="m9QhJa3I75lc1ZdL8t6L-17">
          <mxGeometry x="30" y="30" width="120" height="30" as="geometry" />
        </mxCell>
        <mxCell id="m9QhJa3I75lc1ZdL8t6L-19" value="Nombre" style="text;html=1;align=center;verticalAlign=middle;resizable=0;points=[];autosize=1;strokeColor=none;fillColor=none;" vertex="1" parent="m9QhJa3I75lc1ZdL8t6L-17">
          <mxGeometry x="55" y="60" width="70" height="30" as="geometry" />
        </mxCell>
        <mxCell id="m9QhJa3I75lc1ZdL8t6L-22" value="" style="endArrow=none;html=1;rounded=0;entryX=0;entryY=0.5;entryDx=0;entryDy=0;exitX=1;exitY=0.5;exitDx=0;exitDy=0;" edge="1" parent="1" source="6y43UWj3toeOaIN4cg_Z-16" target="m9QhJa3I75lc1ZdL8t6L-17">
          <mxGeometry width="50" height="50" relative="1" as="geometry">
            <mxPoint x="680" y="820" as="sourcePoint" />
            <mxPoint x="730" y="770" as="targetPoint" />
          </mxGeometry>
        </mxCell>
        <mxCell id="m9QhJa3I75lc1ZdL8t6L-34" value="" style="endArrow=none;html=1;rounded=0;exitX=0.612;exitY=-0.004;exitDx=0;exitDy=0;exitPerimeter=0;" edge="1" parent="1" source="6y43UWj3toeOaIN4cg_Z-23">
          <mxGeometry width="50" height="50" relative="1" as="geometry">
            <mxPoint x="700" y="790" as="sourcePoint" />
            <mxPoint x="600" y="740" as="targetPoint" />
          </mxGeometry>
        </mxCell>
      </root>
    </mxGraphModel>
  </diagram>
</mxfile>
